<?xml version="1.0" standalone="no"?>
<!DOCTYPE svg PUBLIC "-//W3C//DTD SVG 20010904//EN"
 "http://www.w3.org/TR/2001/REC-SVG-20010904/DTD/svg10.dtd">
<svg version="1.0" xmlns="http://www.w3.org/2000/svg"
 width="64.000000pt" height="64.000000pt" viewBox="0 0 64.000000 64.000000"
 preserveAspectRatio="xMidYMid meet">
<metadata>
Created by potrace 1.11, written by Peter Selinger 2001-2013
</metadata>
<g transform="translate(0.000000,64.000000) scale(0.100000,-0.100000)"
fill="#000000" stroke="none">
<path d="M206 615 c-98 -40 -153 -106 -184 -222 -20 -76 -21 -105 -3 -181 17
-67 66 -131 127 -164 57 -31 84 -38 179 -45 114 -8 228 38 293 118 l24 29 -35
0 c-22 0 -41 -7 -53 -21 -54 -60 -178 -90 -289 -69 -130 25 -203 107 -206 235
-5 177 128 308 296 292 174 -16 262 -167 182 -310 -24 -42 -79 -82 -103 -73
-18 7 -15 29 20 184 13 56 19 103 15 103 -5 1 -16 2 -24 2 -31 0 -35 -3 -35
-25 l0 -21 -23 21 c-96 90 -247 -13 -251 -171 -1 -63 18 -104 62 -134 39 -26
82 -24 123 6 27 20 27 20 41 1 30 -44 113 -31 175 27 99 93 107 246 18 351
-72 85 -230 116 -349 67z m144 -175 c55 -29 42 -158 -22 -216 -38 -35 -74 -38
-103 -10 -45 45 -33 147 23 209 27 28 68 35 102 17z"/>
</g>
</svg>
