<?xml version="1.0" standalone="no"?>
<!DOCTYPE svg PUBLIC "-//W3C//DTD SVG 20010904//EN"
 "http://www.w3.org/TR/2001/REC-SVG-20010904/DTD/svg10.dtd">
<svg version="1.0" xmlns="http://www.w3.org/2000/svg"
 width="64.000000pt" height="58.000000pt" viewBox="0 0 64.000000 58.000000"
 preserveAspectRatio="xMidYMid meet">
<metadata>
Created by potrace 1.11, written by Peter Selinger 2001-2013
</metadata>
<g transform="translate(0.000000,58.000000) scale(0.100000,-0.100000)"
fill="#000000" stroke="none">
<path d="M86 547 c-58 -33 -89 -96 -83 -168 8 -93 54 -158 177 -249 25 -18 66
-54 93 -79 l47 -45 48 45 c26 25 70 63 97 84 89 69 127 109 151 160 60 127 -2
261 -127 273 -60 6 -100 -10 -139 -55 l-30 -34 -26 31 c-54 64 -136 78 -208
37z"/>
</g>
</svg>
