<?xml version="1.0" standalone="no"?>
<!DOCTYPE svg PUBLIC "-//W3C//DTD SVG 20010904//EN"
 "http://www.w3.org/TR/2001/REC-SVG-20010904/DTD/svg10.dtd">
<svg version="1.0" xmlns="http://www.w3.org/2000/svg"
 width="64.000000pt" height="64.000000pt" viewBox="0 0 64.000000 64.000000"
 preserveAspectRatio="xMidYMid meet">
<metadata>
Created by potrace 1.11, written by Peter Selinger 2001-2013
</metadata>
<g transform="translate(0.000000,64.000000) scale(0.100000,-0.100000)"
fill="#000000" stroke="none">
<path d="M110 588 c-24 -13 -58 -40 -74 -61 -28 -35 -31 -46 -31 -105 1 -102
47 -170 180 -267 22 -16 61 -49 87 -74 l48 -45 42 40 c24 22 72 63 108 91 132
104 170 160 170 253 0 116 -101 207 -201 180 -44 -12 -95 -52 -104 -80 -7 -22
-25 -27 -25 -7 0 18 -60 74 -93 86 -41 16 -57 14 -107 -11z"/>
</g>
</svg>
