<?xml version="1.0" standalone="no"?>
<!DOCTYPE svg PUBLIC "-//W3C//DTD SVG 20010904//EN"
 "http://www.w3.org/TR/2001/REC-SVG-20010904/DTD/svg10.dtd">
<svg version="1.0" xmlns="http://www.w3.org/2000/svg"
 width="128.000000pt" height="128.000000pt" viewBox="0 0 128.000000 128.000000"
 preserveAspectRatio="xMidYMid meet">
<metadata>
Created by potrace 1.11, written by Peter Selinger 2001-2013
</metadata>
<g transform="translate(0.000000,128.000000) scale(0.100000,-0.100000)"
fill="#000000" stroke="none">
<path d="M450 979 c-284 -99 -322 -111 -383 -116 -66 -7 -69 -19 -12 -47 35
-18 46 -18 114 -8 42 6 134 29 205 52 71 22 131 38 135 35 3 -4 -17 -27 -44
-52 -128 -117 -313 -303 -337 -339 -37 -53 -45 -96 -23 -118 16 -16 19 -15 49
4 17 12 84 48 150 81 109 54 146 68 146 54 0 -3 -39 -52 -86 -108 -100 -118
-112 -140 -94 -162 18 -22 24 -20 114 34 217 131 391 205 670 286 160 46 209
64 173 65 -38 0 -217 -31 -307 -54 -114 -28 -261 -83 -372 -137 -121 -58 -118
-44 17 84 90 84 150 121 295 182 87 36 96 47 24 30 -115 -28 -117 -24 -36 58
76 76 86 99 51 118 -30 15 -83 5 -196 -37 -52 -20 -97 -33 -100 -31 -3 3 20
35 51 71 31 37 56 70 56 75 0 16 -37 41 -61 41 -13 0 -103 -27 -199 -61z m240
-202 c0 -8 -25 -41 -54 -74 -52 -57 -60 -62 -156 -92 -56 -18 -113 -31 -127
-29 -25 3 -23 6 43 76 74 78 60 71 259 122 17 4 31 8 33 9 1 1 2 -5 2 -12z"/>
</g>
</svg>
